<?xml version="1.0" encoding="UTF-8"?>
<svg width="137.23" height="137.22" version="1.1" viewBox="0 0 137.23 137.22" xml:space="preserve" xmlns="http://www.w3.org/2000/svg">
<style type="text/css">
	.st0{fill:#20201E;}
	.st1{fill:none;}
	.st2{fill:#9F1C1C;}
</style>
<g transform="translate(-3.3159 -4.4284)">
	<path class="st0" d="m528.1 83.53c0-2.13 0.74-3.83 2.22-5.08 1.48-1.26 3.68-1.9 6.59-1.94h5.07v7.57c-0.67 1.63-1.73 2.94-3.18 3.92s-3.11 1.47-4.99 1.47c-3.81-0.01-5.71-1.99-5.71-5.94m17.87 8.43v-0.35c-0.56-1.52-0.84-3.8-0.84-6.85v-15.28c0-3.01-0.81-5.31-2.42-6.88s-3.98-2.36-7.11-2.36c-2.9 0-5.31 0.89-7.23 2.66-1.92 1.78-2.88 3.94-2.88 6.49l3.2 0.03c0-1.82 0.63-3.31 1.9-4.46s2.89-1.73 4.87-1.73c2.13 0 3.75 0.48 4.85 1.45s1.66 2.57 1.66 4.79v4.35h-5.35c-3.67 0.02-6.54 0.92-8.62 2.71-2.08 1.78-3.12 4.2-3.12 7.25 0 2.8 0.75 4.96 2.25 6.48s3.59 2.27 6.28 2.27c1.77 0 3.4-0.43 4.91-1.28s2.74-2.06 3.7-3.61c0.1 1.88 0.29 3.32 0.58 4.32zm-31.84-38.47c0.36 0.45 0.88 0.68 1.55 0.68s1.2-0.23 1.57-0.68 0.56-1 0.56-1.65-0.19-1.21-0.56-1.67-0.9-0.69-1.57-0.69-1.19 0.23-1.55 0.69-0.55 1.02-0.55 1.67c0 0.64 0.19 1.2 0.55 1.65m3.14 7.32h-3.22v31.15h3.22zm-30.23 13.94c0.02-3.9 0.63-6.78 1.83-8.64s3.11-2.79 5.71-2.79c3.42 0 5.84 1.74 7.28 5.21v16.15c-1.52 3.21-3.95 4.81-7.31 4.81-2.61 0-4.52-0.94-5.71-2.82-1.2-1.88-1.8-4.82-1.8-8.81zm-3.25 3.42c0.04 4.59 0.92 8.13 2.63 10.62 1.72 2.5 4.22 3.74 7.5 3.74 3.59 0 6.26-1.53 8-4.58l0.14 4h2.99v-44.21h-3.2v17.24c-1.75-3.17-4.39-4.75-7.92-4.75-3.36 0-5.89 1.23-7.6 3.7s-2.56 6.14-2.56 11.01v3.23zm-8.84-5.32v0.84h-15.29c0.13-3.42 0.88-6.01 2.23-7.79s3.29-2.66 5.8-2.66c4.69-0.01 7.1 3.2 7.26 9.61m2.56 15.52-1.67-2.13c-1.9 2.25-4.39 3.37-7.46 3.37-2.78 0-4.94-0.97-6.46-2.91-1.53-1.94-2.29-4.69-2.29-8.26v-1.76h18.51v-2.99c-0.04-4.55-0.95-7.93-2.72-10.13-1.77-2.21-4.35-3.31-7.73-3.31-3.49 0-6.24 1.3-8.23 3.9-2 2.6-2.99 6.19-2.99 10.75v3.8c0.04 4.43 1.09 7.85 3.17 10.25 2.07 2.4 4.94 3.6 8.61 3.6 4.14-0.01 7.23-1.4 9.26-4.18m-62.93-38.32v41.92h3.28v-18.29l-0.29-17.99 12.78 36.27h2.53l12.84-36.45-0.29 18.28v18.17h3.28v-41.91h-4.35l-12.75 36.88-12.7-36.88zm-20.75 0.33c-0.49-0.6-1.21-0.91-2.17-0.91s-1.68 0.3-2.16 0.89c-0.48 0.6-0.72 1.33-0.72 2.19s0.24 1.58 0.72 2.16 1.2 0.86 2.16 0.86c0.98 0 1.71-0.29 2.19-0.86 0.48-0.58 0.72-1.3 0.72-2.16 0-0.84-0.25-1.57-0.74-2.17m0.33 10.43h-5.1v31.15h5.1zm-10.59-0.17c-0.54-0.27-1.21-0.4-2.02-0.4-2.49 0-4.42 1.25-5.79 3.74l-0.09-3.17h-4.95v31.15h5.1v-22.28c1.04-2.86 2.86-4.29 5.47-4.29 0.83 0 1.59 0.07 2.3 0.2zm-38.06 14.12c0.02-3.39 0.55-5.91 1.58-7.55 1.04-1.64 2.73-2.46 5.07-2.46 2.46 0 4.34 1.25 5.64 3.74v15.7c-1.25 2.55-3.14 3.82-5.67 3.82-2.34 0-4.03-0.82-5.07-2.46s-1.56-4.2-1.56-7.69v-3.1zm-5.1 3.41c0.04 4.57 0.97 8.1 2.81 10.61 1.83 2.5 4.36 3.76 7.59 3.76 3.11 0 5.5-1.3 7.17-3.92l0.26 3.34h4.66v-44.22h-5.1v16.12c-1.67-2.42-3.99-3.63-6.97-3.63-3.36 0-5.93 1.26-7.73 3.77s-2.69 6.17-2.69 10.97zm-27.46-17.36v31.15h5.1v-22.62c0.62-1.36 1.43-2.47 2.43-3.31 1.01-0.84 2.14-1.27 3.41-1.27 1.63 0 2.86 0.51 3.67 1.54 0.82 1.03 1.22 2.76 1.22 5.2v20.47h5.07v-20.7c-0.08-7.35-2.87-11.03-8.38-11.03-3.07 0-5.6 1.31-7.57 3.94l-0.14-3.37zm-22.6 25.9c-0.71-0.8-1.07-2.08-1.07-3.84 0-1.88 0.7-3.34 2.1-4.39s3.31-1.59 5.73-1.63h2.88v7.43c-0.52 1.04-1.34 1.9-2.48 2.59-1.13 0.69-2.32 1.04-3.57 1.04-1.68 0-2.88-0.4-3.59-1.2m15.69 5.25v-0.46c-0.63-1.76-0.96-3.85-0.98-6.25v-15.71c-0.04-3.03-0.89-5.34-2.55-6.92s-4.08-2.38-7.27-2.38c-1.96 0-3.73 0.41-5.33 1.24-1.59 0.83-2.86 1.96-3.8 3.41s-1.41 2.97-1.41 4.56h5.1c0-1.4 0.48-2.56 1.44-3.47s2.21-1.37 3.74-1.37c1.69 0 2.95 0.39 3.77 1.18 0.83 0.79 1.24 2.11 1.24 3.97v3.31h-3.74c-3.74 0.04-6.69 0.99-8.84 2.85s-3.23 4.38-3.23 7.54c0 2.88 0.79 5.11 2.38 6.69 1.58 1.58 3.79 2.38 6.61 2.38 2.8 0 5.11-1.32 6.91-3.97 0.14 1.59 0.36 2.73 0.66 3.4zm-34.38-4.9c-0.88 0.76-2.17 1.14-3.86 1.14-1.8 0-3.21-0.49-4.2-1.47-1-0.98-1.52-2.33-1.58-4.06h-5.12c0 2.86 1.01 5.22 3.02 7.08 2.02 1.86 4.65 2.79 7.89 2.79 3.13 0 5.62-0.81 7.48-2.44 1.86-1.62 2.79-3.79 2.79-6.5 0-2.17-0.68-3.97-2.04-5.38s-3.93-2.86-7.72-4.34c-2.38-1.03-3.88-1.86-4.51-2.5-0.62-0.63-0.93-1.46-0.93-2.5 0-1.3 0.43-2.34 1.28-3.11s2.03-1.16 3.53-1.16c1.46 0 2.66 0.49 3.6 1.48s1.41 2.18 1.41 3.58h5.07c0-2.76-0.92-5.03-2.76-6.79-1.84-1.77-4.28-2.65-7.31-2.65-2.88 0-5.24 0.84-7.1 2.52-1.85 1.68-2.78 3.78-2.78 6.32 0 1.42 0.28 2.64 0.83 3.67 0.56 1.03 1.4 1.94 2.52 2.75s3.06 1.78 5.8 2.91c2.36 1.06 3.95 1.98 4.78 2.76 0.83 0.79 1.24 1.73 1.24 2.82 0 1.3-0.45 2.32-1.33 3.08m-26.86 0c-0.88 0.76-2.17 1.14-3.86 1.14-1.81 0-3.21-0.49-4.2-1.47-1-0.98-1.53-2.33-1.58-4.06h-5.12c0 2.86 1.01 5.22 3.02 7.08 2.02 1.86 4.65 2.79 7.89 2.79 3.13 0 5.62-0.81 7.49-2.44 1.86-1.62 2.79-3.79 2.79-6.5 0-2.17-0.68-3.97-2.04-5.38s-3.93-2.86-7.72-4.34c-2.38-1.03-3.88-1.86-4.51-2.5-0.62-0.63-0.93-1.46-0.93-2.5 0-1.3 0.43-2.34 1.28-3.11s2.03-1.16 3.53-1.16c1.46 0 2.66 0.49 3.6 1.48s1.41 2.18 1.41 3.58h5.07c0-2.76-0.92-5.03-2.76-6.79-1.84-1.77-4.28-2.65-7.31-2.65-2.88 0-5.24 0.84-7.1 2.52-1.85 1.68-2.78 3.78-2.78 6.32 0 1.42 0.28 2.64 0.83 3.67 0.56 1.03 1.4 1.94 2.52 2.75s3.06 1.78 5.8 2.91c2.36 1.06 3.95 1.98 4.78 2.76 0.82 0.79 1.24 1.73 1.24 2.82-0.01 1.3-0.46 2.32-1.34 3.08m-26.62-20.55c0.93 1.27 1.46 3.38 1.6 6.33v0.69h-12.26c0.13-3.05 0.71-5.3 1.73-6.75s2.58-2.17 4.69-2.17c1.9 0 3.31 0.64 4.24 1.9m6.44 21.37-2.65-3.23c-1 1.23-2.07 2.13-3.21 2.69-1.14 0.57-2.46 0.85-3.96 0.85-2.36 0-4.17-0.76-5.43-2.27-1.26-1.52-1.88-3.94-1.88-7.28v-0.72h17.39v-3.34c-0.04-4.91-0.96-8.53-2.76-10.85s-4.53-3.48-8.18-3.48c-3.63 0-6.45 1.32-8.48 3.96-2.02 2.64-3.04 6.28-3.04 10.93v3.77c0.04 4.47 1.09 7.86 3.17 10.18 2.07 2.31 5.05 3.47 8.92 3.47 4.53-0.02 7.9-1.57 10.11-4.68m-29.25-40.14h-5.1v44.22h5.1zm-26.29 9.68 5.73 19.06h-11.43zm10.4 34.54h5.41l-13.53-41.92h-4.52l-13.5 41.92h5.41l3.25-10.96h14.17z"/>
	<path class="st1" d="m19.93 100.12c-14.61-28.06-3.7-62.66 24.36-77.27s62.66-3.7 77.27 24.36 3.7 62.66-24.36 77.27-62.66 3.7-77.27-24.36"/>
	<path class="st2" d="m19.93 100.12c1.74 3.32 3.8 6.47 6.15 9.39s5.01 5.59 7.89 7.97c5.77 4.77 12.51 8.35 19.65 10.47 7.15 2.13 14.69 2.78 22.04 1.99 7.36-0.8 14.5-3.11 20.92-6.64 6.42-3.54 12.1-8.34 16.63-14 4.56-5.65 7.93-12.2 9.99-19.1 2.05-6.91 2.76-14.18 2.08-21.31s-2.75-14.11-6.06-20.46c-3.3-6.35-7.83-12.06-13.28-16.71s-11.82-8.25-18.65-10.53-14.13-3.27-21.38-2.77c-7.25 0.46-14.43 2.36-21.01 5.59s-12.57 7.76-17.44 13.33c-4.86 5.57-8.66 12.13-11.01 19.2-2.36 7.07-3.29 14.64-2.69 22.1 0.3 3.73 0.96 7.44 2.01 11.04 1.04 3.61 2.44 7.11 4.16 10.44-3.47-6.65-5.64-13.97-6.35-21.45-0.72-7.48 0.04-15.1 2.19-22.34 2.16-7.23 5.7-14.08 10.48-20 4.76-5.93 10.71-10.94 17.44-14.64 6.72-3.69 14.2-6.1 21.9-6.93 7.7-0.82 15.59-0.12 23.06 2.11s14.51 5.97 20.55 10.96c3.02 2.5 5.79 5.29 8.26 8.34 2.46 3.06 4.61 6.35 6.44 9.82 1.8 3.48 3.26 7.14 4.36 10.9 1.1 3.77 1.79 7.65 2.1 11.55 0.63 7.81-0.34 15.73-2.8 23.13-2.45 7.4-6.42 14.27-11.5 20.1-5.1 5.84-11.36 10.58-18.24 13.97-6.89 3.38-14.41 5.39-22 5.88-7.59 0.52-15.24-0.51-22.4-2.89-7.16-2.39-13.84-6.15-19.55-11.02-5.73-4.85-10.48-10.83-13.94-17.49"/>
	<path class="st1" d="m31.68 31.54c20.72-19.33 53.19-18.2 72.53 2.52 19.33 20.72 18.2 53.19-2.52 72.52s-53.19 18.2-72.52-2.52c-19.34-20.72-18.21-53.19 2.51-72.52"/>
	<path class="st2" d="m31.68 31.54c-2.45 2.3-4.67 4.84-6.63 7.56-1.96 2.73-3.62 5.66-4.99 8.72-2.73 6.13-4.19 12.79-4.3 19.47-0.11 6.67 1.15 13.33 3.6 19.47 2.47 6.14 6.18 11.73 10.77 16.4 4.6 4.67 10.09 8.39 16.05 10.92 5.95 2.56 12.39 3.87 18.81 3.99 6.42 0.1 12.83-1.03 18.79-3.32s11.45-5.73 16.12-10.09c4.67-4.35 8.49-9.59 11.18-15.37 2.7-5.78 4.28-12.1 4.62-18.52 0.34-6.41-0.53-12.92-2.67-19.04-2.11-6.12-5.44-11.86-9.78-16.77-4.34-4.9-9.66-9-15.62-11.88-5.96-2.87-12.51-4.59-19.18-4.94-6.66-0.35-13.42 0.65-19.72 2.95-3.15 1.15-6.19 2.61-9.05 4.37-2.85 1.75-5.53 3.8-8 6.08 4.91-4.59 10.71-8.22 16.99-10.63 6.28-2.42 13.04-3.6 19.81-3.49 6.76 0.12 13.54 1.52 19.81 4.22 6.28 2.67 12.05 6.6 16.88 11.52 4.82 4.92 8.72 10.81 11.31 17.27 2.57 6.47 3.89 13.47 3.76 20.48-0.12 7.01-1.67 14.02-4.54 20.47-1.44 3.22-3.19 6.3-5.24 9.18-2.06 2.87-4.4 5.53-6.97 7.95-5.17 4.8-11.29 8.6-17.93 11-6.63 2.42-13.73 3.48-20.73 3.11-7.01-0.36-13.91-2.16-20.18-5.18-6.28-3.03-11.88-7.33-16.45-12.48-4.57-5.16-8.09-11.2-10.32-17.65-2.26-6.44-3.19-13.3-2.83-20.05 0.36-6.76 2.01-13.42 4.86-19.52 2.83-6.09 6.85-11.62 11.77-16.2"/>
	<path class="st1" d="m90.9 112.19c-20.56 12.5-47.37 5.96-59.86-14.6s-5.96-47.37 14.6-59.86 47.36-5.97 59.86 14.6 5.96 47.36-14.6 59.86"/>
	<path class="st2" d="m90.9 112.19c2.43-1.49 4.72-3.22 6.81-5.15s3.98-4.09 5.64-6.4c3.32-4.63 5.67-9.92 6.89-15.45 1.23-5.53 1.3-11.27 0.3-16.78-1.01-5.51-3.15-10.77-6.18-15.4-3.03-4.64-6.95-8.63-11.45-11.72-4.49-3.11-9.59-5.28-14.86-6.45-5.28-1.16-10.76-1.31-16.06-0.43s-10.41 2.77-14.99 5.57c-2.3 1.39-4.46 3-6.44 4.8-1.99 1.8-3.81 3.78-5.41 5.94-3.22 4.29-5.62 9.23-7.02 14.45-2.86 10.45-1.47 22.09 4.01 31.74 2.73 4.82 6.41 9.14 10.84 12.57 4.43 3.42 9.56 6.01 15.03 7.46 5.47 1.46 11.25 1.81 16.89 0.99 2.81-0.41 5.6-1.09 8.28-2.06 2.69-0.97 5.27-2.21 7.72-3.68-4.87 2.97-10.32 4.99-15.96 5.92s-11.47 0.77-17.09-0.48c-5.61-1.25-11.02-3.56-15.8-6.88-4.78-3.3-8.95-7.56-12.15-12.49s-5.46-10.52-6.53-16.37c-1.05-5.85-0.96-11.94 0.35-17.8 1.3-5.86 3.81-11.47 7.32-16.38 1.76-2.45 3.77-4.74 5.99-6.79s4.65-3.88 7.23-5.46c5.17-3.13 10.97-5.24 16.95-6.1 5.98-0.87 12.11-0.5 17.92 1.03s11.26 4.27 15.97 7.89c4.71 3.64 8.63 8.23 11.53 13.34s4.77 10.77 5.49 16.54c0.75 5.77 0.31 11.64-1.17 17.19-1.48 5.56-4.02 10.81-7.45 15.38-3.42 4.6-7.72 8.51-12.6 11.46"/>
	<path class="st1" d="m39.76 84.5c-8.74-16.79-2.21-37.48 14.57-46.22 16.79-8.74 37.48-2.21 46.22 14.57 8.74 16.79 2.21 37.48-14.57 46.22-16.79 8.74-37.48 2.22-46.22-14.57"/>
	<path class="st2" d="m39.92 84.42c2.07 3.95 5 7.46 8.52 10.14 3.5 2.71 7.57 4.6 11.77 5.68 2.1 0.55 4.24 0.87 6.39 1.03 0.54 0.02 1.07 0.06 1.61 0.07 0.54 0 1.07 0.01 1.61-0.01 0.53-0.02 1.07-0.03 1.6-0.07 0.53-0.05 1.06-0.08 1.59-0.14 4.24-0.46 8.36-1.73 12.12-3.71s7.12-4.67 9.89-7.88c2.77-3.22 4.9-6.99 6.25-11.04 2.69-8.11 2.2-17.28-1.55-25.18-1.88-3.94-4.55-7.54-7.9-10.42-3.33-2.89-7.28-5.08-11.51-6.35-2.12-0.62-4.29-1.03-6.48-1.21-2.19-0.16-4.39-0.11-6.55 0.17-4.33 0.56-8.49 1.99-12.24 4.08-7.53 4.17-13.41 10.98-16.47 19.13-1.51 4.07-2.29 8.49-2.08 12.92 0.16 4.42 1.36 8.83 3.43 12.79m-0.31 0.16c-2.07-4-3.45-8.37-4.04-12.88-0.57-4.51-0.34-9.18 0.84-13.67 1.18-4.48 3.32-8.76 6.3-12.39 2.97-3.64 6.75-6.6 10.95-8.66s8.82-3.21 13.43-3.41c2.31-0.1 4.61 0 6.88 0.33 2.27 0.31 4.5 0.84 6.67 1.56 4.33 1.43 8.4 3.63 11.94 6.51 3.54 2.89 6.57 6.42 8.84 10.44 2.26 4.02 3.79 8.51 4.3 13.16 0.53 4.64 0.07 9.41-1.28 13.91-1.35 4.51-3.6 8.75-6.61 12.41-2.99 3.67-6.77 6.68-10.97 8.85-4.21 2.15-8.85 3.47-13.56 3.78-0.59 0.05-1.18 0.04-1.76 0.07-0.59 0.01-1.18-0.02-1.76-0.02-0.59-0.03-1.17-0.09-1.76-0.13-0.58-0.06-1.16-0.14-1.75-0.21-2.32-0.33-4.58-0.94-6.76-1.74-4.36-1.62-8.31-4.12-11.68-7.17-3.37-3.1-6.15-6.74-8.22-10.74"/>
</g>
</svg>
